<svg width="23" height="23" viewBox="0 0 23 23" fill="none" xmlns="http://www.w3.org/2000/svg">
<path fill-rule="evenodd" clip-rule="evenodd" d="M6.77539 0.110742C7.99727 0.0544922 8.38685 0.0419922 11.4993 0.0419922C14.6118 0.0419922 15.0014 0.0555338 16.2223 0.110742C17.4431 0.16595 18.2764 0.360742 19.0056 0.643034C19.7691 0.931576 20.4618 1.38262 21.0348 1.96595C21.6181 2.53783 22.0681 3.22949 22.3556 3.99408C22.6389 4.72324 22.8327 5.55658 22.8889 6.77533C22.9452 7.99928 22.9577 8.38887 22.9577 11.5003C22.9577 14.6128 22.9441 15.0024 22.8889 16.2243C22.8337 17.443 22.6389 18.2764 22.3556 19.0055C22.0681 19.7702 21.6173 20.463 21.0348 21.0357C20.4618 21.6191 19.7691 22.0691 19.0056 22.3566C18.2764 22.6399 17.4431 22.8337 16.2243 22.8899C15.0014 22.9462 14.6118 22.9587 11.4993 22.9587C8.38685 22.9587 7.99727 22.9451 6.77539 22.8899C5.55664 22.8347 4.72331 22.6399 3.99414 22.3566C3.22947 22.069 2.53666 21.6183 1.96393 21.0357C1.38099 20.4635 0.929885 19.771 0.642057 19.0066C0.359766 18.2774 0.166016 17.4441 0.109766 16.2253C0.0535156 15.0014 0.0410156 14.6118 0.0410156 11.5003C0.0410156 8.38783 0.0545573 7.99824 0.109766 6.77741C0.164974 5.55658 0.359766 4.72324 0.642057 3.99408C0.93031 3.22958 1.38176 2.53711 1.96497 1.96491C2.53689 1.3821 3.22901 0.930996 3.9931 0.643034C4.72227 0.360742 5.5556 0.166992 6.77435 0.110742H6.77539ZM16.1296 2.17324C14.9212 2.11803 14.5587 2.10658 11.4993 2.10658C8.43997 2.10658 8.07747 2.11803 6.86914 2.17324C5.75143 2.22428 5.14518 2.41074 4.74102 2.56803C4.20664 2.77637 3.82435 3.02324 3.42331 3.42428C3.04315 3.79413 2.75058 4.24437 2.56706 4.74199C2.40977 5.14616 2.22331 5.75241 2.17227 6.87012C2.11706 8.07845 2.1056 8.44095 2.1056 11.5003C2.1056 14.5597 2.11706 14.9222 2.17227 16.1305C2.22331 17.2482 2.40977 17.8545 2.56706 18.2587C2.75039 18.7555 3.0431 19.2066 3.42331 19.5764C3.7931 19.9566 4.24414 20.2493 4.74102 20.4326C5.14518 20.5899 5.75143 20.7764 6.86914 20.8274C8.07747 20.8826 8.43893 20.8941 11.4993 20.8941C14.5598 20.8941 14.9212 20.8826 16.1296 20.8274C17.2473 20.7764 17.8535 20.5899 18.2577 20.4326C18.7921 20.2243 19.1743 19.9774 19.5754 19.5764C19.9556 19.2066 20.2483 18.7555 20.4316 18.2587C20.5889 17.8545 20.7754 17.2482 20.8264 16.1305C20.8816 14.9222 20.8931 14.5597 20.8931 11.5003C20.8931 8.44095 20.8816 8.07845 20.8264 6.87012C20.7754 5.75241 20.5889 5.14616 20.4316 4.74199C20.2233 4.20762 19.9764 3.82533 19.5754 3.42428C19.2055 3.04415 18.7553 2.75159 18.2577 2.56803C17.8535 2.41074 17.2473 2.22428 16.1296 2.17324ZM10.0358 15.0326C10.8532 15.3729 11.7633 15.4188 12.6107 15.1625C13.4582 14.9063 14.1904 14.3638 14.6823 13.6277C15.1742 12.8915 15.3952 12.0075 15.3077 11.1265C15.2202 10.2455 14.8296 9.42217 14.2025 8.7972C13.8027 8.3977 13.3194 8.0918 12.7872 7.90152C12.255 7.71124 11.6873 7.64133 11.1249 7.6968C10.5624 7.75227 10.0193 7.93176 9.53456 8.22234C9.04982 8.51291 8.63554 8.90735 8.32154 9.37725C8.00754 9.84716 7.80163 10.3808 7.71864 10.9399C7.63564 11.4989 7.67763 12.0694 7.84158 12.6102C8.00552 13.1511 8.28735 13.6489 8.66677 14.0677C9.04618 14.4866 9.51375 14.8161 10.0358 15.0326ZM7.33476 7.33574C7.88167 6.78884 8.53093 6.35502 9.24549 6.05904C9.96005 5.76305 10.7259 5.61071 11.4993 5.61071C12.2728 5.61071 13.0386 5.76305 13.7532 6.05903C14.4678 6.35502 15.117 6.78884 15.6639 7.33574C16.2108 7.88264 16.6447 8.53191 16.9406 9.24647C17.2366 9.96103 17.389 10.7269 17.389 11.5003C17.389 12.2738 17.2366 13.0396 16.9406 13.7542C16.6447 14.4687 16.2108 15.118 15.6639 15.6649C14.5594 16.7694 13.0614 17.3899 11.4993 17.3899C9.93733 17.3899 8.43928 16.7694 7.33476 15.6649C6.23025 14.5604 5.60974 13.0623 5.60974 11.5003C5.60974 9.9383 6.23025 8.44026 7.33476 7.33574ZM18.6952 6.48783C18.8307 6.35998 18.9392 6.20624 19.0142 6.03571C19.0893 5.86519 19.1294 5.68133 19.1321 5.49504C19.1348 5.30875 19.1001 5.12381 19.0301 4.95117C18.96 4.77853 18.856 4.62169 18.7243 4.48995C18.5926 4.35821 18.4357 4.25424 18.2631 4.1842C18.0904 4.11416 17.9055 4.07947 17.7192 4.08218C17.5329 4.0849 17.3491 4.12496 17.1785 4.20001C17.008 4.27505 16.8543 4.38355 16.7264 4.51908C16.4778 4.78265 16.3417 5.13274 16.347 5.49504C16.3522 5.85734 16.4985 6.20332 16.7547 6.45954C17.0109 6.71575 17.3569 6.86202 17.7192 6.8673C18.0815 6.87259 18.4316 6.73646 18.6952 6.48783Z" fill="black" fill-opacity="0.59"/>
</svg>
