<svg width="16" height="20" viewBox="0 0 16 20" fill="none" xmlns="http://www.w3.org/2000/svg">
<path d="M7.99984 19.7499C6.63152 18.5827 5.36321 17.3032 4.20817 15.9246C2.47484 13.8544 0.416505 10.7712 0.416505 7.83323C0.415753 6.33277 0.860139 4.86581 1.69342 3.61801C2.52671 2.3702 3.71143 1.39764 5.09766 0.82341C6.48389 0.249178 8.00932 0.0990856 9.48088 0.392129C10.9524 0.685172 12.304 1.40818 13.3645 2.46965C14.0706 3.17258 14.6302 4.00856 15.0111 4.92922C15.3919 5.84987 15.5863 6.83692 15.5832 7.83323C15.5832 10.7712 13.5248 13.8544 11.7915 15.9246C10.6365 17.3032 9.36815 18.5827 7.99984 19.7499ZM7.99984 4.58323C7.13789 4.58323 6.31123 4.92564 5.70174 5.53513C5.09225 6.14463 4.74984 6.97128 4.74984 7.83323C4.74984 8.69518 5.09225 9.52183 5.70174 10.1313C6.31123 10.7408 7.13789 11.0832 7.99984 11.0832C8.86179 11.0832 9.68844 10.7408 10.2979 10.1313C10.9074 9.52183 11.2498 8.69518 11.2498 7.83323C11.2498 6.97128 10.9074 6.14463 10.2979 5.53513C9.68844 4.92564 8.86179 4.58323 7.99984 4.58323Z" fill="#82746C"/>
</svg>
