<svg width="25" height="21" viewBox="0 0 25 21" fill="none" xmlns="http://www.w3.org/2000/svg">
<path d="M24.6286 3.14305C23.7589 3.52847 22.8245 3.78889 21.8422 3.90659C22.8557 3.30013 23.614 2.34562 23.9755 1.22118C23.0233 1.78679 21.9811 2.18492 20.8943 2.39826C20.1634 1.61791 19.1954 1.10068 18.1404 0.92688C17.0855 0.753076 16.0027 0.932419 15.0601 1.43707C14.1176 1.94171 13.368 2.74343 12.9278 3.71774C12.4875 4.69206 12.3813 5.78446 12.6255 6.82535C10.696 6.72847 8.80847 6.22696 7.08534 5.35337C5.36221 4.47978 3.84202 3.25364 2.62344 1.75451C2.20677 2.47326 1.96719 3.3066 1.96719 4.1941C1.96672 4.99305 2.16347 5.77976 2.53998 6.48444C2.91648 7.18912 3.46111 7.78997 4.12552 8.23368C3.35498 8.20916 2.60143 8.00095 1.9276 7.62639V7.68889C1.92753 8.80945 2.31514 9.89553 3.02467 10.7628C3.7342 11.6302 4.72195 12.2253 5.82031 12.4472C5.1055 12.6407 4.35608 12.6692 3.62865 12.5306C3.93854 13.4947 4.54218 14.3379 5.35507 14.9419C6.16796 15.546 7.14939 15.8807 8.16198 15.8993C6.44306 17.2487 4.32019 17.9806 2.1349 17.9774C1.74779 17.9775 1.36102 17.9549 0.976562 17.9097C3.19477 19.3359 5.77692 20.0929 8.41406 20.0899C17.3411 20.0899 22.2214 12.6962 22.2214 6.28368C22.2214 6.07535 22.2161 5.86493 22.2068 5.65659C23.156 4.97011 23.9754 4.12003 24.6266 3.14618L24.6286 3.14305Z" fill="black" fill-opacity="0.59"/>
</svg>
