<svg width="32" height="34" viewBox="0 0 32 34" fill="none" xmlns="http://www.w3.org/2000/svg">
<g clip-path="url(#clip0_383_749)">
<path d="M31.3342 9.21779C31.153 8.53103 30.8 7.90928 30.3128 7.41862C29.8119 6.91288 29.1979 6.55111 28.5288 6.36745C26.0248 5.6662 15.9928 5.6662 15.9928 5.6662C11.8106 5.61565 7.6294 5.83801 3.47282 6.33204C2.80374 6.52926 2.19091 6.89911 1.68882 7.4087C1.19549 7.91304 0.838156 8.53496 0.65149 9.21637C0.20308 11.783 -0.0147877 14.3891 0.000822911 16.9995C-0.0151771 19.6076 0.202156 22.2129 0.65149 24.7827C0.834156 25.4613 1.19016 26.0804 1.68482 26.5805C2.17949 27.0805 2.79549 27.4418 3.47282 27.633C6.01016 28.3329 15.9928 28.3329 15.9928 28.3329C20.1804 28.3835 24.3669 28.1611 28.5288 27.667C29.1979 27.4834 29.8119 27.1216 30.3128 26.6159C30.7998 26.1253 31.1524 25.5035 31.3328 24.8167C31.7929 22.2511 32.0167 19.6439 32.0008 17.0321C32.0354 14.4093 31.812 11.7898 31.3342 9.21637V9.21779ZM12.8035 21.8502V12.1503L21.1502 17.001L12.8035 21.8502Z" fill="black" fill-opacity="0.59"/>
</g>
<defs>
<clipPath id="clip0_383_749">
<rect width="32" height="34" fill="white"/>
</clipPath>
</defs>
</svg>
